<svg xmlns="http://www.w3.org/2000/svg" xml:space="preserve" id="Layer_1" width="2680" height="1480" x="0" y="0" style="enable-background:new 0 0 2680 1480" version="1.0" viewBox="0 0 2680 1480"><style type="text/css">.st1{fill:#2b478b}.st2{fill:#ffa412}.st5{fill:#d3671e}.st6{fill:#f1a34f}.st7{opacity:.4;fill:#d86713}.st8{fill:#233862}.st9{fill:#2c3a64}.st10{fill:#ed985f}.st11{fill:#ffb27d}.st12{fill:#739af0}.st13{fill:#4a75cb}.st14{fill:#e27f2b}.st15{fill:#d9935c}.st16{fill:#963333}</style><switch><g><path d="M0 .1h2680V1480H0z" style="fill:#fff"/><path d="M198.9 673.6h-22.8V563.3h22.8v110.3zM265 673.6v-41.7c0-8.9-4.5-14.7-13.1-14.7-8.9 0-13.5 6.3-13.5 14.7v41.7h-22v-75.2h21.8v9.9h.1c1.8-3.1 4.2-5.5 7.5-7.3 6.6-3.8 10.6-3.9 13.8-3.9 9 0 15.8 2.8 20.3 8.6 4.6 5.8 6.9 12.8 6.9 21.3v46.8H265zM313.7 598.4l18.6 50.1 18.6-50.1h23.2l-30.9 75.2h-22.4l-30.4-75.2h23.3zM395.3 642.1c1.3 9.2 9.2 14.8 18.6 14.8 6.6 0 13.4-3.5 16.8-9l15.9 10.4c-6.3 11.4-17 17-32.4 17-11.7 0-21.4-3.7-29.4-11-7.9-7.5-11.8-16.9-11.8-28.5 0-10.8 3.9-20 11.7-27.8 7.9-7.7 17.3-11.6 28.2-11.6 11.1 0 20.1 3.5 27 10.4 6.9 6.9 10.4 16.1 10.4 27.2 0 3.5-.1 6.2-.3 7.9h-54.7zm32.9-14.5c-.6-6.6-6.1-13.1-16.1-13.1-4.5 0-8.3 1.4-11.3 4.4-3 2.8-4.6 5.8-5.1 8.7h32.5zM508.8 673.6v-41.7c0-8.9-4.5-14.7-13.1-14.7-8.9 0-13.5 6.3-13.5 14.7v41.7h-22v-75.2H482v9.9h.1c1.8-3.1 4.2-5.5 7.5-7.3 6.6-3.8 10.6-3.9 13.8-3.9 9 0 15.8 2.8 20.3 8.6 4.6 5.8 6.9 12.8 6.9 21.3v46.8h-21.8zM590.2 673.2c-3.2 1-6.6 1.4-10.3 1.4-19.6 0-29.9-10.7-29.9-28.3v-28.9h-13.5v-19h13.8v-23.5H572v23.5h18.6v19H572v26.2c0 8.6 4.5 12 13.1 12 1.8 0 3.5-.1 5.1-.6v18.2zM607.9 608.1c8-7.6 17.9-11.4 29.3-11.4s21.1 3.8 29 11.3 11.8 16.6 11.8 27.8c0 11.3-3.9 20.7-12 28.3-8 7.5-17.7 11.3-29.2 11.3-11.6 0-21.3-3.7-29.2-11.1-7.9-7.5-11.8-16.8-11.8-28 .1-11.3 4-20.7 12.1-28.2zm15.9 41.7c3.5 3.5 8 5.4 13.2 5.4 10.6 0 18.5-8 18.5-19.3 0-5.5-1.8-10.1-5.4-13.7-3.5-3.7-8-5.5-13.2-5.5s-9.6 1.8-13.1 5.5c-3.5 3.5-5.4 8.2-5.4 13.7 0 5.6 1.9 10.3 5.4 13.9zM735.6 619.8c-1.7-.3-3.4-.4-5.2-.4-14.2 0-20.4 8.9-20.4 22.4v31.8h-22v-75.2h21.8V610h.1c3.2-6.9 11.3-12.4 21.3-12.4 1.8 0 3.2.1 4.4.6v21.6z" class="st1"/><path d="M733.9 598.4h24.2l18.7 43 16.8-43h22.7l-45.6 112.3h-23.5l18.5-45.1-31.8-67.2zM185.9 747.3c11.1-11.1 24.7-16.6 40.6-16.6 11.1 0 21.4 3 30.6 8.7 9.3 5.8 15.8 13.8 19.4 23.8l-20.8 9.6c-4.6-12.3-15.6-19.9-29.3-19.9-9.4 0-17.5 3.4-23.8 10-6.3 6.6-9.6 14.8-9.6 24.4 0 9.7 3.1 18 9.4 24.8 6.3 6.6 14.2 10 23.9 10 13.5 0 24.7-8.2 29.6-20.4l21 9.7c-3.7 10.1-10.3 18.2-19.9 24.1-9.4 5.8-19.9 8.7-31 8.7-16.1 0-29.6-5.4-40.4-16.2-10.8-10.8-16.3-24.4-16.3-40.4 0-15.9 5.5-29.3 16.6-40.3zM307.1 842.7H285V727.9h22.1v114.8zM324.8 838c-4.9-4.1-7.3-9.6-7.3-16.3v-.3c0-8.9 4.4-15.4 11.1-18.6 6.9-3.2 13.9-4.5 22.4-4.5h7.5c3.9 0 5.9-1.8 5.9-5.5 0-5.2-4.2-9.3-12.1-9.3-7.5 0-13 3.4-16.8 10.1l-16.8-10c6.5-12 18-17.9 34.5-17.9 19.9 0 32.7 10.6 32.7 30.3v46.6h-20.3v-9.3l-.3-.1c-5.1 7.2-12.5 10.8-22.5 10.8-7 .1-13-1.9-18-6zm39.5-24.5v-1.7H351c-6.3 0-11.4 3-11.4 8.6 0 5.1 3.9 7.6 9.6 7.6 9.5 0 15.1-6.2 15.1-14.5zM426.6 844.4c-15.8 0-26.8-5.8-32.8-17.3l16.2-9.6c3.1 6.1 8.7 9.2 16.9 9.2 5.5 0 9.2-2.5 9.2-5.5s-2.4-5.2-12-7.3c-17.9-3.9-26.8-12.1-26.8-24.4 0-6.9 2.8-12.7 8.5-17 5.8-4.5 12.5-6.8 20.4-6.8 13.9 0 24.1 6.1 29 15.2l-15.9 9.4c-2.8-4.8-7.3-7.2-13.7-7.2-4.5 0-7.9 2.5-7.9 5.5 0 3.2 3.2 5.5 9.9 6.9 19 3.9 29 11.4 29 24.5 0 14.5-11.5 24.4-30 24.4zM493 844.4c-15.8 0-26.8-5.8-32.8-17.3l16.2-9.6c3.1 6.1 8.7 9.2 16.9 9.2 5.5 0 9.2-2.5 9.2-5.5s-2.4-5.2-12-7.3c-17.9-3.9-26.8-12.1-26.8-24.4 0-6.9 2.8-12.7 8.5-17 5.8-4.5 12.5-6.8 20.4-6.8 13.9 0 24.1 6.1 29 15.2l-15.9 9.4c-2.8-4.8-7.3-7.2-13.7-7.2-4.5 0-7.9 2.5-7.9 5.5 0 3.2 3.2 5.5 9.9 6.9 19 3.9 29 11.4 29 24.5 0 14.5-11.4 24.4-30 24.4zM557.6 741.2c0 7.5-6.1 13.5-13.8 13.5-7.3 0-13.5-6.1-13.5-13.5s6.2-13.7 13.5-13.7c7.7.1 13.8 6 13.8 13.7zm-24.7 101.5v-75.2H555v75.2h-22.1zM652.8 767.4v75.2h-22.1v-56.5h-32v56.5h-22v-56.5h-13.5v-18.7h13.5V760c0-19.6 10.4-32.4 31.7-32.4 3.7 0 7 .6 10.3 1.5v18c-1.8-.6-4.1-.8-6.8-.8-8.5 0-13.4 4.6-13.4 13.2v7.9h54.3zM628 741.2c0-7.5 6.2-13.7 13.5-13.7 7.7 0 13.8 5.9 13.8 13.7 0 7.5-6.1 13.5-13.8 13.5-7.3.1-13.5-6-13.5-13.5zM674.3 833.2c-7.6-7.5-11.4-16.8-11.4-28 0-11.1 3.9-20.4 11.8-28 7.9-7.6 17.5-11.4 28.7-11.4 16.8 0 30.6 8.5 35.5 23.2l-19.3 8c-3.2-7.5-8.7-11.1-16.2-11.1-10.1 0-18 7.3-18 19 0 11.3 7.3 19.2 18 19.2 7.9 0 13.4-3.7 16.6-11.1l19.4 8c-5.8 15.4-19.4 23.4-36.2 23.4-11.5 0-21.3-3.7-28.9-11.2zM751.5 838c-4.9-4.1-7.3-9.6-7.3-16.3v-.3c0-8.9 4.4-15.4 11.1-18.6 6.9-3.2 13.9-4.5 22.4-4.5h7.5c3.9 0 5.9-1.8 5.9-5.5 0-5.2-4.2-9.3-12.1-9.3-7.5 0-13 3.4-16.8 10.1l-16.8-10c6.5-12 18-17.9 34.5-17.9 19.9 0 32.7 10.6 32.7 30.3v46.6h-20.3v-9.3l-.3-.1c-5.1 7.2-12.5 10.8-22.5 10.8-7 .1-13-1.9-18-6zm39.5-24.5v-1.7h-13.2c-6.3 0-11.4 3-11.4 8.6 0 5.1 3.9 7.6 9.6 7.6 9.3 0 15-6.2 15-14.5zM872.3 842.2c-3.2 1-6.6 1.4-10.3 1.4-19.6 0-29.9-10.7-29.9-28.3v-28.9h-13.5v-19h13.8v-23.5h21.7v23.5h18.6v19h-18.6v26.2c0 8.6 4.5 12 13.1 12 1.8 0 3.5-.1 5.1-.6v18.2zM908.2 741.2c0 7.5-6.1 13.5-13.8 13.5-7.3 0-13.5-6.1-13.5-13.5s6.2-13.7 13.5-13.7c7.7.1 13.8 6 13.8 13.7zm-24.7 101.5v-75.2h22.1v75.2h-22.1zM927.6 777.2c8-7.6 17.9-11.4 29.3-11.4s21.1 3.8 29 11.3c7.9 7.5 11.8 16.6 11.8 27.8 0 11.3-3.9 20.7-12 28.3-8 7.5-17.8 11.3-29.2 11.3-11.6 0-21.3-3.7-29.2-11.1-7.9-7.5-11.8-16.8-11.8-28 .2-11.3 4.1-20.8 12.1-28.2zm15.9 41.7c3.5 3.5 8 5.4 13.2 5.4 10.6 0 18.5-8 18.5-19.3 0-5.5-1.8-10.1-5.4-13.7-3.5-3.7-8-5.5-13.2-5.5s-9.6 1.8-13.1 5.5c-3.5 3.5-5.4 8.2-5.4 13.7.1 5.6 1.9 10.2 5.4 13.9zM1056.4 842.7V801c0-8.9-4.5-14.7-13.1-14.7-8.9 0-13.5 6.3-13.5 14.7v41.7h-22v-75.2h21.8v9.9h.1c1.8-3.1 4.2-5.5 7.5-7.3 6.6-3.8 10.6-3.9 13.8-3.9 9 0 15.8 2.8 20.3 8.6 4.6 5.8 6.9 12.8 6.9 21.3v46.8h-21.8z" class="st1"/><path d="M305.2 932h-137c-2.7 0-4.9-2.2-4.9-4.9v-2c0-2.7 2.2-4.9 4.9-4.9h137c2.7 0 4.9 2.2 4.9 4.9v2c0 2.7-2.2 4.9-4.9 4.9z" class="st2"/><path d="M2383 1117.2s167.7-180.1 28.4-375c-123.6-173-267.8-161.1-373.5-91-45 29.9-174.9 3.7-285.4-172.3-150.7-240-673.2-94.4-578 274.8 46.1 178.7-140.3 185.2-45.3 363.8l1253.8-.3z" style="fill:#fbecdb"/><path d="M2008.7 417.2h-30.5l-.2-57.6-65.2.2-19.6.1h-.1v18.4l.1.1.1 38.8h-262.6v699.6h377.9v.2h51.4V417.2h-51.3zm-369.3 514v1.3-1.3zm360.7 88-99.7.3-30.2.1h-.2l.1 28.4.2.2.1 59.7h-231.1V951.6h360.8v67.6zm-280.2-86.8.4.1-.4-.1zm280.2.1h-35.2l-.3-145.5-100.6.3-30.2.1h-.2l.1 28.4.2.1.2 116.5h30.2v.1h-94.1l-.2-89.7-100.6.3-30 .1v-67.1h360.8v156.4zm0-175.4h-102.8l-.3-89.7-100.6.3-30.2.1h-.2l.1 28.4.2.2.1 60.7h-127.1V600.8h360.8v156.3zm0-175.4h-360.8V425.5h360.8v156.2z" style="fill:#ead6c3"/><path d="m1576.63 1116.35.428-138.9 156.6.482-.428 138.9z" class="st5"/><path d="m1780.6 978.2-125.4-.4-.3 138.8 125.3.5z" class="st6"/><path d="m1654.9 977.7 125.7.5-.1 44.2-125.9 94.2z" class="st7"/><path d="m1481.223 1116.543.275-89.2 100.6.31-.275 89.2z" class="st5"/><path d="m1612.3 1027.8-80.6-.3-.2 89.2 80.5.3z" class="st6"/><path d="m1531.7 1027.5 80.8.3-.1 28.3-80.9 60.6z" class="st7"/><path d="M1904.3 1069.4c-.4-4.6-1.4-9-2.9-13.1-.3-.8-.6-1.5-.9-2.3-.2-.6-.5-1.1-.7-1.6l-.9-1.8c-.3-.6-.7-1.3-1.1-1.9-1.8-3.1-3.9-5.8-6.3-8.2-.8-.8-1.7-1.6-2.6-2.4-.7-.6-1.4-1.1-2.2-1.6-1.1-.7-2.1-1.4-3.2-2-.4-.2-.8-.4-1.3-.7-3.5-1.8-7.4-2.8-11.4-3.1-.6 0-1.2-.1-1.8-.1h-16.4c-19.5 0-35.3 19.4-35.3 43.3s15.8 43.3 35.3 43.3h16.4c.6 0 1.2 0 1.8-.1 4-.2 7.8-1.3 11.4-3.1.4-.2.8-.4 1.3-.7 1.1-.6 2.2-1.3 3.2-2 .7-.5 1.5-1.1 2.2-1.6.9-.7 1.8-1.5 2.6-2.4 2.4-2.4 4.5-5.2 6.3-8.2.4-.6.7-1.3 1.1-1.9l.9-1.8c.3-.5.5-1.1.7-1.6.3-.8.6-1.5.9-2.3 1.5-4.1 2.5-8.5 2.9-13.1.1-1.5.2-2.9.2-4.4 0-1.7-.1-3.2-.2-4.6z" class="st8"/><path d="M1557.4 666.9h-8.3c.6-1.7 0-3.5-1.4-4-1.5-.6-3.2.3-3.9 2.1-.3.7-.3 1.3-.3 1.9h-8.1c-.3 0-.6.1-.7.3l-2.7 3.1c-.6.6-.1 1.6.7 1.6h22c.3 0 .6-.1.7-.3l2.7-3.1c.6-.6.1-1.6-.7-1.6zm-10.2-.5c-.2.6-.8.9-1.3.7-.5-.2-.7-.8-.4-1.4.2-.6.8-.9 1.3-.7.5.2.7.8.4 1.4z" class="st2"/><path d="m1400.1 442.3-26.7 20.9c-1.3 2 1.4 2.1.3 4.5-10.8 22.3-3.6 46.1 5.6 43.7 5.9-1.5 7.6 8.5 7.6 8.5l57.2-46.3c0-.1-21-43.6-44-31.3z" class="st9"/><path d="m1420 1098-12.1 4.5s-52.8-73.2-59.3-137.6c-1.2-11.5-.8-22.6 1.7-32.9 0 0-.5-2.9-1.4-8.2-.4-2.4-.9-5.4-1.5-8.7-1.7-9.8-4.1-23.3-6.8-38.6-6.2-35.2-14.3-80.3-20.5-113.4l3.3-1.1 35.4-11.4 7.3-23.3 26.4-6.9s5.9 11.5 11.2 66c1 7.1 1.9 15 2.5 23.6 2.1 26.1 2.2 58.4-2.5 95.4-1.2 9.5-2.7 19.2-4.6 29.3-1.4 7.4-1.6 17.4-1 28.9 2.6 52.6 21.9 134.4 21.9 134.4z" class="st1"/><path d="m1406.2 810-57.3 113.9c-.4-2.4-.9-5.4-1.5-8.7-1.7-9.8-4.1-23.3-6.8-38.6-6.2-35.2-14.3-80.3-20.5-113.4l3.3-1.1 35.4-11.4 7.3-23.3 26.4-6.9s5.9 11.5 11.2 66c1 7.1 1.9 15 2.5 23.5z" class="st8"/><path d="m1381 735.1-1.3-11.4c-22.2 5.9-81.6-16.5-81.6-16.5s-21.5 18.9-18.7 64.3c1.4 22.1 3.9 116.2 6.5 144 1 10.1 1.8 17.3 2.1 20.1.1.9-.2 1.7-.6 2.5-3.9 6.6-7.1 13.4-9.7 20.4-25.8 68.8 4 153.6 4 153.6l7.7-3.1s17-94.3 30.7-136c2.3-7.1 4.6-12.6 6.6-15.9 6-9.7 11.6-25.5 16.6-44.3 9.5-35.5 17.2-81.7 22.3-117.4.9 0 15.4-60.3 15.4-60.3z" class="st1"/><path d="M1556 720.6c-4.8 4.2-17.5-10.3-19.2-12.2-.1-.2-.2-.3-.2-.3l3.9-10.8s16.6-.6 19.4 2.1c2.7 2.8 1.4 16.7-3.9 21.2z" class="st10"/><path d="m1540.5 697.3-1.7 11.1s-.7 0-2-.1c-4-.3-13.9-.8-25-2-16.7-1.7-36.6-4.6-44.5-9.5-12-7.4-31.8-29.9-44.7-52.4-.4-.6-.6-1.1-.9-1.7-6.7-12-11.4-23.8-11.8-33.3-.3-5.8.4-10.8 1.6-15.1 1.6-5.7 4.1-10.2 6.8-13.6.4-.6.7-1.1 1.3-1.6 4.4-5.2 8.7-7.4 8.7-7.4 2.2-.9 4.6.2 7.1 2.9v.1c2 2.1 4.2 5.3 6.3 9.4.1.1.2.2.2.3.5.8.9 1.7 1.5 2.8.2.2.3.5.4.6 1 2.1 2 4.3 3 6.6 11.3 24.6 23.4 62 33.4 73.1 4.3 4.8 24.1 14.2 39.8 21.1 11.3 5 20.5 8.7 20.5 8.7z" class="st10"/><path d="M1423.5 597.2c-7 3.2-15.4 5.4-25.6 6-38.2 2.1-46.9-31.4-48.4-53.6 5.5-2 10.3-1.8 13.1-1.7 2.7.1 5.5.4 7.9.7 4.7-2.4 13.1-14.3 17.9-34.1l1.6.8 27.6 13s-2.9 9-5.1 17.5c-1.7 6.7-2.9 13.2-1.9 15 2.2.9 3.5 1.4 3.5 1.4.2.8 6.2 16 9.4 35z" class="st11"/><path d="M1433 622.3c-.3.8-.6 1.5-1 2.3-9.7 20.8-27.6 107.1-27.6 107.1 2.5 15.5-116.6-3-116.9-17.2-4.2-15 14.9-39 25.7-51.1 1.3-1.5 2.6-3.1 3.6-4.9 2.7-4.3 4.3-9.2 4.9-14.2 2.1-20 1.3-38.8 1.5-50.2 2.1-1.6 4.1-3 6-4.4 2.9-2.1 5.5-4.1 7.3-6.1 2.1-2.2 3.4-4.4 3.5-6.9.1-1.9.1-3.9-.1-5.8-.1-.9-.2-1.8-.3-2.8-1.5-9.7-5.5-18.5-5.5-18.5 10.2-4.1 28.5-1.7 28.5-1.7v2.7c-.1 6.7 0 23.7 2.1 27 2.7 4 51.5 21.7 54.1 16.2 2.5-5.4-4.4-30.6-4.7-31.5 16.3 6.4 22.2 11.8 22.2 11.8-9.9 6.3 4.3 27.9-3.3 48.2z" class="st12"/><path d="M1417.5 528.2s-2.9 9-5.1 17.5c-16.1-4.5-21-21.4-22.5-30.5l27.6 13z" class="st10"/><path d="M1420.9 537.7s-38.5-8.9-32.6-32.8c5.9-23.9 4.9-41.2 29.8-36.5 24.9 4.7 27.4 15 27.3 23.4 0 8.5-14.3 47.6-24.5 45.9z" class="st11"/><path d="M1447.6 478.3c-4.1-8.7-9-8.2-12.1-6.7-18.1-16.8-45.5-8.3-45.5-8.3-6.8 16.5-12 28.5-12 28.5s5.9 6.1 23.1 5.9c5.2 0 10.5-2.4 15.3-5.8-9.2 9.3-20.1 15-20.1 15 21.5-4.1 35.9-29 37.4-31.6 1.8 2.7 5.3 8.4 5.6 13.2.4 6.6-1.9 19.3 1.9 19.8-.1.1 12.6-17 6.4-30z" class="st9"/><path d="M1436.2 574s9.3 16.2 10.7 20.4c0 0-12-.5-16.9 8.8 0 0-1.2-27 6.2-29.2z" class="st12"/><path d="M1372.4 702.6c-23.5-.2-43.4-24.6-55.6-44.2 2.7-4.3 4.3-9.2 4.9-14.2 2.1-20 1.3-38.8 1.5-50.2 2.1-1.6 4.1-3 6-4.4 2.9-2.1 5.5-4.1 7.3-6.1 19.3 32.6 67.8 119.5 35.9 119.1z" class="st13"/><path d="M1326.7 1118.4h-61.2s-1.5-9.3 1.7-16.4c3.1-6.8 7.9-9.9 6.7-18.1 3.9 4 10.2 8.5 19.1 7.3 1.1 1.8 7 11.2 10.6 13.8 4 2.9 21.9 1.8 23.1 13.4zM1458.1 1118.4h-61.2s-2.3-9.8 1.7-16.4c3.6-5.9 2.2-9.2-.4-14.1 2.8 1.1 6.4 2.2 10.3 1.9 3-.2 6.3-1.6 9.1-3.2 2.6 3 13.9 15.8 17.4 18.3 4 3 21.8 1.9 23.1 13.5zM1515 669.1l-59.6 77.5.9 1.1 60.4-77.6z" class="st8"/><path d="M1516.6 670.2h60.4l-63.3 77.5h-57.4z" class="st1"/><path d="M1504.1 717.2c-.2-3.1-4.2-2.9-7.3-3-5.1 0-13.1-.4-17.7-2.1 0 0 14.8-.2 11.6-4.9-.6-.8-7.9-.2-16.1-.2-3.4 0-11.7 4.6-11.2 4.8-5.9-.8-11.3-1.9-13.1-2.3-4-2.2-8.9-4.9-14.1-7.8-12.4-7-26.7-15.5-36.4-22.6-5.6-4-9.8-7.6-11.3-10.2-2.3-4-4.9-10.2-7.7-17.9-1.5-4-3-8.5-4.6-13.1-2.8-7.7-5.5-16.1-8.4-24.5-5.1-15.3-10.7-30.6-15.9-42.5-3.4-7.4-6.7-13.6-9.8-17.4-2.5-3-4.9-4.6-7.2-4.2-.4.1-.6.2-.9.3 0 0-13.2 3.7-13.4 30.3-.1 1.5 0 3 .1 4.7.2 4.7 1.1 10.4 2.5 16.6 2.2 10.5 5.9 22.6 10.5 34.9 1.3 3.3 2.6 6.7 4 10.1 9.9 24.6 22.7 47.6 33.5 55.4.5.4.8.6 1.3.9 4.5 2.9 11.1 5.7 18.8 8.4 10.8 3.7 23.7 7 35.2 9.7h.1c6.7 1.5 12.9 2.9 18 3.9 0 0 .8.2 2.3.5.2 0 .4.1.7.1 4.9 1.2 14.9 3.8 24.4 7.4 13.2 5.2 23-1.3 27.4-5.9 2.7-2.7 4.9-6.6 4.7-9.4z" class="st11"/><path d="M1352 570.9c-17.7-4.9-31.4 8.9-31.4 8.9.2-26.6 13.5-30.3 13.5-30.3 5.3-2.1 16.6 3.9 17.9 21.4z" class="st12"/><path d="M1424.3 428.9c-8.8-2-16.2-1.9-22.5-.3-.6.2-1.2.3-1.8.5-23.9 7.2-30 34.9-30 34.9s-1 7.3-.7 10.4c.3 3.1 23.1 11.3 26.5 7.2 3.5-4 10.1-6.7 10.1-6.7s23.3 9.9 24.9 10.6c5.3 2.2 22.4 4.6 22.4 4.6.6-1.5 15.5-51.1-28.9-61.2z" class="st2"/><path d="M1469.1 492.1c-2.4-2-6.6-5.1-14.1-9.3 0 0-9.1 2-23.8-.4-2.1-10.6-9.9-37.3-29.3-53.9-.1-.1-.1-.1-.2-.1-.8.4-1.1.4-1.7.6-.2.1-.3.2-.5.3 16.4 12.3 23.2 41.3 25.2 51.8-5.7-1.3-12-3.3-18.8-6.2 0 0 17.4 18.5 61.9 20.5 1.8.1 2.6-2.2 1.3-3.3z" class="st14"/><path d="M1515 669.1h60.7l1.3 1.1h-60.4z" class="st8"/><path d="M1973 1034.3h-109.4c-2.2 0-3.9-1.8-3.9-4.1s1.7-4.1 3.9-4.1H1973c2.2 0 3.9 1.8 3.9 4.1s-1.7 4.1-3.9 4.1zM1974.1 907.7h-111.6c-2.2 0-4-1.8-4-4.1s1.8-4.1 4-4.1h111.6c2.2 0 4 1.8 4 4.1s-1.8 4.1-4 4.1z" class="st1"/><path d="M2043.2 719.1c6.6 1.5 36.5 1.9 57.5-2.8 4.4-1 8.4-2.2 11.7-3.6 4-1.7 6.9-3.9 8.5-6.4 2.4-4 6.7-17.5 11.8-35.3 14.1-48.9 33.9-129.7 33.9-129.7s-39.8 8.1-48.2 15c-8.4 6.9-15.8 116.8-23.8 119.8-1.2.4-3.2 1.4-5.8 2.6-.1.1-.3.1-.4.2-1.5.8-3.3 1.6-5.1 2.6-16.4 8.4-43.6 23.6-46.4 27-3.6 4.4-3.3 8.4 6.3 10.6z" class="st12"/><path d="M2119.5 603.8c0-1.9.2-3.7.5-5.6 5.1-28.1 45.8-56.9 46.6-56.9v.6c0 4.3 6.8 12.2 17.2 12.9 12.4.8 27.7-6.3 27.7-13.4.1 0 7 .9 9.3 1.2 9.9 1.1 29.7 6.5 38.2 12.9 8.1 6.1-3.3 44.5-10.4 71.7-3 11.5-5.2 21-4.8 25.2.2 2.1 2 30 3.7 55.3 1.4 20.8 2.6 39.9 2.6 41.1.1 2.4-11.7 10.7-31.5 16.9-4.8 1.5-10 2.9-15.7 4.1-10.1 2.1-21.6 3.4-34.1 3.4-4.1 0-7.9-.2-11.6-.6-28.2-2.8-37.9-35-37.7-168.8z" class="st12"/><path d="M2211.5 541.1c.2-10.9.1-24-1.4-35l-43.6 7.1s0 13.3.1 28.1c0 0-1.2 13.7 15.7 15.7 16.8 2 29.6-5.4 29.2-15.9z" class="st15"/><path d="M2175 1118.4c5.5-3.4 2.3-28.4 2.3-28.4s-25.7-20.4-29.1-4.7c-3.5 15.7-24.2 22.8-36.1 24.8-8.2 1.4-11.2 5.6-12 8.3h74.9z" class="st8"/><path d="M2214.9 688.4c0 41.8 20.3 30.5 32.5 19.3-1.6-25.3-2.8-114.8-2.8-114.8s-29.7 35.7-29.7 95.5zM2083.4 681.5c.8 5.9 10.1 22.9 17.3 34.8 4.4-1 8.4-2.2 11.7-3.6 4-1.7 6.9-3.9 8.5-6.4 2.4-4 6.7-17.5 11.8-35.3-3.8-21.9-7.4-43.4-7.4-43.4l-1.1-14.5c0 1.1-16.9 64.7-24.6 66.2-4.6.9-7.9-.2-10.7-.6-.1.1-.3.1-.4.2-1.5.7-3.2 1.6-5.1 2.6z" class="st13"/><path d="M2253.7 1118.4c5.5-3.4 2.3-28.4 2.3-28.4s-25.7-20.4-29.1-4.7c-3.5 15.7-24.2 22.8-36.1 24.8-8.2 1.4-11.1 5.6-11.9 8.3h74.8zM2215.6 493.5s29.1-45.9-26.8-48.9c0 0-21 2.5-25.7-2.3 0 0-16.3 24.7-1.1 51.2 15.2 26.5 53.6 0 53.6 0z" class="st8"/><path d="M2167.7 517.4c4.2 3.3 16.7 6.6 20.3 7 0 0 18.4-4.1 21.8-6.1 5.2-3.1 4.9-9.5 5.1-18.4.3-10.5 1.4-18.7.2-24.7-1.4-7.2-6-11.3-18.8-12.4-23.5-2-33.3 3.8-33.7 11.7-.1 2.1-.2 4.1-.3 6.1-1 24.6 1 33.3 5.4 36.8z" class="st15"/><path d="M2162.1 488.7c.2 14.3 4.1 22.7 6.9 23.8 3.2 1.2 7 2.2 10.9 2.9 1.3.2 2.6.1 2.6-.6 0-2.2-3-5-.8-7 2.3-2.1 14.9-2.8 15.9 1.8.5 2.2-3.6 6.1-.8 6.2.8-.1 1.7-.3 2.5-.5 4.6-1.2 8.2-3.4 9.7-4.3 5.2-3.1 4.8-8 6-16.7.7-5.7.7-2.6 0 5.8-.8 8.8.7 14.5-5.1 18.4-3.3 2.2-22 10.6-22 10.6.3-4.5-15.7-8.2-20-11.5-4.1-3.2-6.1-10.4-5.8-28.9z" class="st8"/><path d="M2250.1 748.8c.1 2.4-11.7 10.7-31.5 16.9-1.6.5-3.2 1-4.9 1.5-1.8 21.6-6.8 52.2-11.3 81.7-1.2 7.6-2.3 15.2-3.3 22.5-2.7 19.4-4.8 37.1-5 49.8v.1c-.1 5.8 4.8 20.4 5.2 23.8.2 2.1.4 4.2.5 6.5.5 9.1.3 19.9-.4 31.4-3.2 50.2-16.5 114.3-21.2 117-9.4 5.4-26.5 0-35.2-1.3-3.6-.5-6.5-3.6-6.3-7.2 4.2-83.2-8-199.1-17.1-270.4-.2-1.9-.5-3.7-.7-5.5-1.1-8.4-1.8-16.2-2.3-23.3-.4-6.2-.6-11.8-.7-16.7v-4.4c0-4.5 3.5-33.7 3.7-167.5 0-3.1 2.5-5.6 5.6-5.6h81.8c7.9 0 14.3 6.5 14.2 14.4-.1 10.2.2 24.5 2.5 38.1 3 18.6 9.5 35.9 22.8 40.1.1.1.4.9 1 2.3.1 3.4.3 6.8.4 10.3 0 .7.1 1.4.1 2.1 0 .4 0 .8.1 1.2 0 .7.1 1.4.1 2.1.1 1.2.1 2.4.2 3.5.1.9.1 1.9.2 2.8.1 1.8.2 3.6.3 5.5 0 .6.1 1.2.1 1.8.2 2.4.3 4.8.5 7.3.1.8.1 1.5.2 2.3 0 .4.1.7.1 1.1.1 1 .1 1.9.2 2.9s.2 2 .3 3.1c.1 3.8-.3 7.1-.2 9.8z" class="st1"/><path d="M2199.3 983c-3.2 50.2-16.5 114.3-21.2 117-9.4 5.4-26.5 0-35.2-1.3-3.6-.5-6.5-3.6-6.3-7.2 4.2-83.2-8-199.1-17.1-270.4-.2-1.9-.5-3.7-.7-5.5-1.1-8.4-1.8-16.2-2.3-23.3 4.3-28.3 28.8-29.8 51 28.7-2.7 19.4 32.5 150.5 31.8 162z" class="st8"/><path d="M2251 918.9c.7 5.8 7.5 19.6 8.3 22.9 11.2 45.1 5 152.1-.5 156.4-8.6 6.6-26.3 3.5-35.1 3.4-3.6-.1-6.9-2.7-7.2-6.3-6.9-85.2-35.5-202.3-53.9-271.1-9.3-34.7-10.6-60.2-10.6-60.2s85.9-52.6 95.2-23.9c8.3 25.2-1.4 134.3 3.8 178.8z" class="st1"/><path d="M2163.5 431.7c.6-.7 1.2-1.3 1.9-1.9 2.8-2.7 6.2-5 10.2-6.7 15-6.2 27.4-.5 35.2 5.4.8.6 1.5 1.2 2.2 1.7 4.2 3.6 6.6 6.8 6.6 6.8s7.3 9.9 7 30.8l-74.9.8c-.1.1-1.2-22.5 11.8-36.9z" class="st2"/><path d="M2205.5 468.1h-4.1c-.1-1.2.1-28.4 10.3-38.9.8.6.6.5 1.3 1.1-9.7 9.3-7.5 37.6-7.5 37.8z" class="st14"/><path d="M2172.9 468.5c-.9-16.6-7.2-34.1-9-37.3.6-.7.7-.8 1.4-1.5 1.2 2.1 11 20.2 12 38.7l49.2-.5s-24.9 5.6-39.9 5.8c-15 .2-35-5-35-5l21.3-.2z" class="st14"/><path d="M2223.7 543s-25.3 29.5-26.8 55.2l12.9.7s3.2-28.7 22.3-54.1c0 0-3-.7-4-.9-1.3-.3-4.4-.9-4.4-.9zM2160.6 542.6c-18.1 27.4-20.1 56.2-20.1 56.2l-13-.2c1.1-20.2 13.8-42.5 20.8-53 0-.1 9-2.4 12.3-3z" class="st1"/><path d="M2244 701.3c-.6 30.2 3.1 90.3 3.1 90.3h17.8c8.4-42.3 11.4-69.5 11.4-84.4V699c-.1-12.7-.5-20-.5-20 3.3-76.8-12-117.9-16.8-123.6-4.8-5.7-26.9-10.7-26.9-10.7s-7.3 21.2-10.3 38.3c-3 17.1 23.4 88.8 22.3 113.3 0 1.6-.1 3.2-.1 5z" class="st12"/><path d="M2247.1 791.6s-3.8-60.1-3.1-90.3c14.2-4.6 25.7-3.6 32.3-2.2v8.2c0 14.8-3 42.1-11.4 84.4 3.7 15.6 3.5 32.4-3 35.4-6.4 3-27.7-8.2-27.5-13.1.3-5.1 12.7-22.4 12.7-22.4zM2003.3 722.1c1.7-6.4 3-9.9 7.4-13 6.4-4.5 13.9-3.3 19.6-2.3 4.3.8 8.8-.7 10.7-1.4 10-6.7 35-20.4 47.5-26.5 8.5 4.9 19 14.7 23.9 33.8-19.2 8.5-61.2 8.3-69.2 6.5 0 0-7.4 5.4-13 5.9-2.1.2-4.8-.4-7.3-1.3-4-1.3-8.2 0-11.1 3.5-2.7 3.4-5.7 3.4-7.2 3.4-2.3-.1-2.4-4.6-1.3-8.6z" class="st15"/><path d="M1979.9 1103h-132.7c-2.3 0-7.4-1.8-7.4-4.1s17.1-4.1 19.3-4.1h112.5v-348c0-14.2 11.6-25.8 25.8-25.8h28.8c2.3 0 4.1 1.8 4.1 4.1s-1.8 4.1-4.1 4.1h-28.8c-9.7 0-17.5 7.9-17.5 17.5V1103z" class="st1"/><path d="M1864.9 1103h-96.3c-2.3 0-4.1-1.8-4.1-4.1s1.8-4.1 4.1-4.1h88.1v-348c0-14.2 11.6-25.8 25.8-25.8h28.8c2.3 0 4.1 1.8 4.1 4.1s-1.8 4.1-4.1 4.1h-28.8c-9.7 0-17.5 7.9-17.5 17.5V1103z" class="st1"/><path d="M1973.2 781.7h-109.8c-2.2 0-3.9-1.8-3.9-4.1s1.8-4.1 3.9-4.1h109.8c2.2 0 3.9 1.8 3.9 4.1 0 2.2-1.7 4.1-3.9 4.1z" class="st1"/><path d="M2033 732h-35.5c-3.8 0-6.9-3.1-6.9-6.9s3.1-6.9 6.9-6.9h35.5c3.8 0 6.9 3.1 6.9 6.9s-3.1 6.9-6.9 6.9z" class="st16"/><path d="M1997.5 721c-12.9 0-23.7 9.6-25.5 22h8.4c1.7-7.9 8.8-13.8 17.1-13.8 2.3 0 4.1-1.8 4.1-4.1 0-2.2-1.8-4.1-4.1-4.1z" class="st1"/><path d="M1917.9 732h-35.5c-3.8 0-6.9-3.1-6.9-6.9s3.1-6.9 6.9-6.9h35.5c3.8 0 6.9 3.1 6.9 6.9s-3.1 6.9-6.9 6.9z" class="st16"/><path d="M1882.4 721c-12.9 0-23.7 9.6-25.5 22h8.4c1.7-7.9 8.8-13.8 17.1-13.8 2.3 0 4.1-1.8 4.1-4.1 0-2.2-1.8-4.1-4.1-4.1z" class="st1"/><path d="m1838.9 973.3 136.8-2.4.3 123.9h-136.8z" class="st5"/><path d="m1797.8 973.5 109.5-.5.3 121.9-109.5-.1z" class="st6"/><path d="m1907.3 973-109.5.5.1 38.4 109.7 83z" class="st7"/><path d="M1989.2 1030.5h-16.4c-19.5 0-35.3 19.4-35.3 43.3s15.8 43.3 35.3 43.3h16.4c19.5 0 35.3-19.4 35.3-43.3s-15.8-43.3-35.3-43.3z" class="st8"/><ellipse cx="1989.2" cy="1073.8" class="st1" rx="35.3" ry="43.3"/><path d="M2011.5 1073.8c0 15.1-10 27.4-22.4 27.4-12.4 0-22.4-12.3-22.4-27.4s10-27.4 22.4-27.4c12.4 0 22.4 12.3 22.4 27.4z" class="st13"/><path d="m1863.4 834.3 157.5-.5-.5 138.9-156.5.5z" class="st5"/><path d="m1816.5 834.6 125.3-.5.3 138.8-125.3.5z" class="st6"/><path d="m1941.8 834.1-125.3.5.1 44.4 125.5 93.9z" class="st7"/><path d="M2043.2 719.1s-13.3 9.1-16.9 6.8c-3.5-2.2 2.5-7.3-3.2-9.1-5.6-1.8 20.1 2.3 20.1 2.3z" class="st15"/><path d="M2514.9 1120.3H1077.3c-1 0-1.8-.8-1.8-1.8v-.2c0-1 .8-1.8 1.8-1.8h1437.6c1 0 1.8.8 1.8 1.8v.2c0 1-.8 1.8-1.8 1.8z" style="fill:#2e3552"/></g></switch></svg>